<svg width="121" height="28" viewBox="0 0 121 28" fill="none" xmlns="http://www.w3.org/2000/svg">
<path d="M11.5571 28C9.82915 28 8.92546 27.2751 8.84602 25.8252C8.82615 25.2492 9.02477 24.7328 9.44186 24.276C9.85894 23.7994 10.4647 23.5412 11.2592 23.5014C11.716 23.4617 12.004 23.3624 12.1231 23.2035C12.2423 23.0446 12.3019 22.7765 12.3019 22.3992V10.9591C12.3019 10.4229 12.2026 10.0753 12.004 9.9164C11.8054 9.73765 11.4379 9.64828 10.9017 9.64828H5.86682C5.3107 9.64828 4.83403 9.44966 4.4368 9.05244C4.05943 8.65522 3.87075 8.17855 3.87075 7.62244C3.87075 7.06632 4.05943 6.59959 4.4368 6.22222C4.83403 5.825 5.3107 5.62639 5.86682 5.62639H10.9017C12.5104 5.62639 13.7319 5.81507 14.5661 6.19243C15.4003 6.56979 15.9564 7.2848 16.2344 8.33744C16.433 8.79424 16.6317 9.24112 16.8303 9.67807C17.0487 10.115 17.2573 10.542 17.4559 10.9591C18.012 10.4427 18.6178 9.85682 19.2732 9.2014C19.9485 8.52612 20.594 7.86077 21.2097 7.20535C21.8453 6.54993 22.3517 5.99382 22.7291 5.53701C23.1462 5.06034 23.6526 4.80215 24.2485 4.76243C24.8642 4.7227 25.4004 4.90145 25.8572 5.29868C26.2545 5.63632 26.4928 6.10306 26.5723 6.69889C26.6716 7.27487 26.5127 7.79126 26.0956 8.24806C25.5792 8.80418 24.9238 9.45959 24.1293 10.2143C23.3547 10.9492 22.5503 11.684 21.7162 12.4189C20.882 13.1538 20.1273 13.8092 19.452 14.3852C20.445 15.8748 21.5473 17.2551 22.7589 18.5262C23.9903 19.7973 25.3706 20.9691 26.9 22.0416C27.4164 22.3991 27.7242 22.9056 27.8235 23.561C27.9228 24.1966 27.7441 24.7825 27.2873 25.3187C26.8503 25.855 26.3041 26.143 25.6487 26.1827C24.9933 26.2224 24.3974 26.0238 23.8612 25.5869C22.2723 24.276 20.872 22.856 19.6605 21.3266C18.449 19.7775 17.3963 18.1588 16.5026 16.4706V22.9056C16.5026 24.7726 16.0755 26.0834 15.2215 26.8381C14.3675 27.6127 13.146 28 11.5571 28ZM3.84096 26.2423C3.32457 26.6196 2.75852 26.8282 2.14282 26.8679C1.54698 26.9275 1.01072 26.6792 0.534049 26.1231C0.0970998 25.6266 -0.0717215 25.0804 0.0275852 24.4846C0.146753 23.8887 0.474465 23.4021 1.01072 23.0248C2.4606 21.9721 3.692 20.8798 4.70493 19.7477C5.73772 18.5957 6.52224 17.3246 7.0585 15.9343C7.25711 15.4577 7.2869 15.1399 7.14787 14.981C7.00884 14.8022 6.68113 14.7129 6.16474 14.7129H2.14282C1.62642 14.7129 1.17954 14.5242 0.802177 14.1468C0.424812 13.7695 0.236129 13.3127 0.236129 12.7764C0.236129 12.26 0.424812 11.8131 0.802177 11.4358C1.17954 11.0584 1.62642 10.8697 2.14282 10.8697H6.6712C8.89567 10.8697 10.3356 11.3464 10.991 12.2997C11.6465 13.2332 11.716 14.5341 11.1996 16.2025C10.6037 18.2084 9.67026 20.0655 8.39914 21.7735C7.14787 23.4617 5.62848 24.9513 3.84096 26.2423ZM16.1748 5.74555C15.6187 5.5668 14.9434 5.36819 14.149 5.14972C13.3744 4.91139 12.5998 4.69291 11.8252 4.4943C11.0506 4.27583 10.3654 4.09708 9.76957 3.95805C9.15387 3.81902 8.67719 3.53103 8.33955 3.09409C8.00191 2.63728 7.92246 2.07124 8.10122 1.39596C8.26011 0.819983 8.58782 0.422759 9.08435 0.204287C9.60075 -0.0340477 10.2264 -0.0638396 10.9612 0.114911C11.5174 0.234079 12.2026 0.402899 13.0169 0.621372C13.8312 0.839844 14.6455 1.05832 15.4598 1.27679C16.294 1.49526 16.9792 1.69387 17.5155 1.87263C18.151 2.07124 18.5781 2.41881 18.7965 2.91534C19.015 3.39201 19.0448 3.91833 18.8859 4.4943C18.727 5.05041 18.3695 5.44764 17.8134 5.68597C17.2573 5.90444 16.7111 5.9243 16.1748 5.74555Z" fill="#F8F7F8"/>
<path d="M35.0302 22.25V5.74997H41.9602V8.93997H38.6382V12.35H41.9602V15.54H38.6382V19.06H41.9602V22.25H35.0302Z" fill="#F8F7F8"/>
<path d="M44.9602 22.25V5.74997H48.5682V22.25H44.9602Z" fill="#F8F7F8"/>
<path d="M51.6891 22.25V5.74997H55.2971V11.712L57.6511 5.74997H61.4351L58.8831 12.284L61.5891 22.25H57.8711L56.2431 16.068L55.2971 18.444V22.25H51.6891Z" fill="#F8F7F8"/>
<path d="M66.1165 22.25V16.53L63.1025 5.74997H66.6665L67.8985 11.404L69.1745 5.74997H72.7385L69.7025 16.53V22.25H66.1165Z" fill="#F8F7F8"/>
<path d="M79.4538 22.426C76.6598 22.426 74.7238 20.864 74.7238 18.136V5.74997H78.3318V17.696C78.3318 18.62 78.6178 19.214 79.4538 19.214C80.2898 19.214 80.5758 18.62 80.5758 17.696V5.74997H84.1618V18.136C84.1618 20.864 82.2258 22.426 79.4538 22.426Z" fill="#F8F7F8"/>
<path d="M91.3328 22.426C88.5608 22.426 86.6248 20.864 86.6248 18.136V16.904H90.2108V17.784C90.2108 18.62 90.5188 19.214 91.3328 19.214C92.1688 19.214 92.4768 18.708 92.4768 18.004V17.542C92.4768 16.75 91.5748 16.134 90.1008 15.254C88.6268 14.352 86.6248 13.208 86.6248 10.766V9.86397C86.6248 7.11397 88.5608 5.57397 91.3328 5.57397C94.1268 5.57397 96.0628 7.11397 96.0628 9.86397V11.096H92.4768V10.304C92.4768 9.37997 92.1688 8.78597 91.3328 8.78597C90.5188 8.78597 90.2108 9.31397 90.2108 9.99597V10.458C90.2108 11.25 91.0908 11.844 92.5868 12.724C94.0608 13.626 96.0628 14.792 96.0628 17.234V18.136C96.0628 20.864 94.1268 22.426 91.3328 22.426Z" fill="#F8F7F8"/>
<path d="M98.7141 22.25V5.74997H102.322V12.328H105.05V5.74997H108.658V22.25H105.05V15.562H102.322V22.25H98.7141Z" fill="#F8F7F8"/>
<path d="M116.291 22.426C113.497 22.426 111.561 20.864 111.561 18.136V9.86397C111.561 7.11397 113.497 5.57397 116.291 5.57397C119.063 5.57397 120.999 7.11397 120.999 9.86397V18.136C120.999 20.864 119.063 22.426 116.291 22.426ZM116.291 19.214C117.127 19.214 117.413 18.62 117.413 17.696V10.304C117.413 9.37997 117.127 8.78597 116.291 8.78597C115.455 8.78597 115.169 9.37997 115.169 10.304V17.696C115.169 18.62 115.455 19.214 116.291 19.214Z" fill="#F8F7F8"/>
</svg>
